<svg width="25" height="15" viewBox="0 0 25 15" fill="#000" xmlns="http://www.w3.org/2000/svg">
<path fill-rule="evenodd" clip-rule="evenodd" d="M24.4272 1.33827C24.6 0.769836 24.4272 0.351318 23.5995 0.351318H20.8667C20.1712 0.351318 19.8506 0.712576 19.6767 1.11131C19.6767 1.11131 18.2869 4.43863 16.3182 6.59993C15.681 7.22667 15.3916 7.42552 15.0439 7.42552C14.87 7.42552 14.6087 7.22667 14.6087 6.65719V1.33827C14.6087 0.655316 14.4171 0.351318 13.8383 0.351318H9.54067C9.10654 0.351318 8.84523 0.667809 8.84523 0.968684C8.84523 1.6152 9.8301 1.76512 9.93108 3.58494V7.539C9.93108 8.40622 9.7718 8.56343 9.42407 8.56343C8.4975 8.56343 6.24355 5.22049 4.90575 1.39553C4.64652 0.651152 4.38416 0.351318 3.68559 0.351318H0.950652C0.169835 0.351318 0.0136719 0.712576 0.0136719 1.11131C0.0136719 1.82134 0.940241 5.34854 4.32898 10.0137C6.58815 13.1994 9.76867 14.9266 12.666 14.9266C14.4036 14.9266 14.6181 14.5434 14.6181 13.8823V11.4743C14.6181 10.707 14.7826 10.554 15.3333 10.554C15.7393 10.554 16.4337 10.7539 18.0557 12.2895C19.9089 14.1103 20.2139 14.9266 21.2571 14.9266H23.9899C24.7708 14.9266 25.1622 14.5434 24.9373 13.7855C24.6896 13.0318 23.8046 11.9376 22.6313 10.6394C21.9942 9.90018 21.0385 9.10375 20.748 8.70501C20.343 8.19384 20.4586 7.96584 20.748 7.51089C20.748 7.51089 24.0795 2.90303 24.4262 1.33827H24.4272Z" fill="#000"/>
</svg>
